<?xml version="1.0" encoding="utf-8"?>
<!-- Generator: Adobe Illustrator 21.0.0, SVG Export Plug-In . SVG Version: 6.00 Build 0)  -->
<svg version="1.1" id="Layer_1" xmlns="http://www.w3.org/2000/svg" xmlns:xlink="http://www.w3.org/1999/xlink" x="0px" y="0px"
	 viewBox="0 0 64 64" style="enable-background:new 0 0 64 64;" xml:space="preserve">
<g>
	<g>
		<g>
			<path d="M35,28.4c0.3,6.5,0.2,13-0.3,19.5c-0.1,1.9,2.9,1.9,3,0c0.5-6.5,0.6-13,0.3-19.5C37.9,26.5,34.9,26.5,35,28.4L35,28.4z"
				/>
		</g>
	</g>
	<g>
		<g>
			<path d="M18.7,28.9c11.1,2.7,25.5,2.6,34.7-5.1c2.3-1.9,6.3-6.1,4.6-9.3c-2.2-4.1-10.4-5.9-14.5-6.4c-6.3-0.8-12.6,0.4-18.5,2.5
				c-5.5,1.9-12.6,4.3-16.3,9.2c-5.7,7.6-3.6,21,1.7,28.3c3.8,5.3,9.6,7.8,15.9,8.9c8.1,1.4,16.6,2.3,24.8,1.4c1.9-0.2,1.9-3.2,0-3
				C44.5,56,38,55.4,31.6,54.6c-6.6-0.8-13.6-2-18.1-7.4c-3.6-4.3-5-10.2-5-15.7c0-2.9,0.3-6.2,1.8-8.8c1.8-3.3,5.4-5,8.7-6.5
				c5.9-2.7,12.2-4.9,18.8-5.3c3.6-0.2,17.7,0.6,17.1,6.5c-0.5,4.8-9.8,7.9-13.5,8.8C34.1,28,26.7,27.7,19.5,26
				C17.6,25.5,16.8,28.4,18.7,28.9L18.7,28.9z"/>
		</g>
	</g>
</g>
</svg>
